<?xml version="1.0" encoding="UTF-8" standalone="no"?>
<!DOCTYPE svg PUBLIC "-//W3C//DTD SVG 1.1//EN"
 "http://www.w3.org/Graphics/SVG/1.1/DTD/svg11.dtd">
<!-- Generated by graphviz version 14.0.5 (20251129.0259)
 -->
<!-- Title: G Pages: 1 -->
<svg width="357pt" height="369pt"
 viewBox="0.00 0.00 357.00 369.00" xmlns="http://www.w3.org/2000/svg" xmlns:xlink="http://www.w3.org/1999/xlink">
<g id="graph0" class="graph" transform="scale(1 1) rotate(0) translate(4 365.02)">
<title>G</title><style>.edge>path:hover{stroke-width:8}</style>
<polygon fill="white" stroke="none" points="-4,4 -4,-365.02 352.55,-365.02 352.55,4 -4,4"/>
<!-- quant_bc_data_io -->
<g id="node1" class="node">
<title>quant_bc_data_io</title><style>.edge>path:hover{stroke-width:8}</style>
<ellipse fill="#c43131" stroke="black" cx="79.33" cy="-266.39" rx="44.72" ry="22.63"/>
<text xml:space="preserve" text-anchor="middle" x="79.33" y="-268.89" font-family="Helvetica,sans-Serif" font-size="10.00" fill="#ffffff">quant.</text>
<text xml:space="preserve" text-anchor="middle" x="79.33" y="-256.89" font-family="Helvetica,sans-Serif" font-size="10.00" fill="#ffffff">bc_data_io</text>
</g>
<!-- quant_bc_technical_analysis -->
<g id="node4" class="node">
<title>quant_bc_technical_analysis</title><style>.edge>path:hover{stroke-width:8}</style>
<ellipse fill="#b03a3a" stroke="black" cx="113.33" cy="-185.14" rx="79.2" ry="22.63"/>
<text xml:space="preserve" text-anchor="middle" x="113.33" y="-187.64" font-family="Helvetica,sans-Serif" font-size="10.00" fill="#ffffff">quant.</text>
<text xml:space="preserve" text-anchor="middle" x="113.33" y="-175.64" font-family="Helvetica,sans-Serif" font-size="10.00" fill="#ffffff">bc_technical_analysis</text>
</g>
<!-- quant_bc_data_io&#45;&gt;quant_bc_technical_analysis -->
<g id="edge1" class="edge">
<title>quant_bc_data_io&#45;&gt;quant_bc_technical_analysis</title><style>.edge>path:hover{stroke-width:8}</style>
<path fill="none" stroke="black" d="M88.44,-244.15C91.82,-236.29 95.72,-227.18 99.43,-218.54"/>
<polygon fill="#c43131" stroke="black" points="102.63,-219.95 103.36,-209.38 96.2,-217.19 102.63,-219.95"/>
</g>
<!-- quant_bc_trade_simulation -->
<g id="node5" class="node">
<title>quant_bc_trade_simulation</title><style>.edge>path:hover{stroke-width:8}</style>
<ellipse fill="#8b4b4b" stroke="black" cx="166.33" cy="-22.63" rx="72.83" ry="22.63"/>
<text xml:space="preserve" text-anchor="middle" x="166.33" y="-25.13" font-family="Helvetica,sans-Serif" font-size="10.00" fill="#ffffff">quant.</text>
<text xml:space="preserve" text-anchor="middle" x="166.33" y="-13.13" font-family="Helvetica,sans-Serif" font-size="10.00" fill="#ffffff">bc_trade_simulation</text>
</g>
<!-- quant_bc_data_io&#45;&gt;quant_bc_trade_simulation -->
<g id="edge2" class="edge">
<title>quant_bc_data_io&#45;&gt;quant_bc_trade_simulation</title><style>.edge>path:hover{stroke-width:8}</style>
<path fill="none" stroke="black" d="M115.23,-252.62C147.04,-240.59 190.15,-222.29 201.33,-207.76 229.69,-170.92 236.38,-148.52 220.33,-104.88"/>
</g>
<!-- quant_bc_trader -->
<g id="node6" class="node">
<title>quant_bc_trader</title><style>.edge>path:hover{stroke-width:8}</style>
<ellipse fill="#995252" stroke="black" cx="288.33" cy="-185.14" rx="39.95" ry="22.63"/>
<text xml:space="preserve" text-anchor="middle" x="288.33" y="-187.64" font-family="Helvetica,sans-Serif" font-size="10.00" fill="#ffffff">quant.</text>
<text xml:space="preserve" text-anchor="middle" x="288.33" y="-175.64" font-family="Helvetica,sans-Serif" font-size="10.00" fill="#ffffff">bc_trader</text>
</g>
<!-- quant_bc_data_io&#45;&gt;quant_bc_trader -->
<g id="edge3" class="edge">
<title>quant_bc_data_io&#45;&gt;quant_bc_trader</title><style>.edge>path:hover{stroke-width:8}</style>
<path fill="none" stroke="black" d="M114.74,-252.34C153.17,-238.16 212.03,-216.37 234.33,-207.76 238.13,-206.3 242.08,-204.75 246.03,-203.19"/>
<polygon fill="#c43131" stroke="black" points="246.99,-206.58 254.99,-199.64 244.41,-200.07 246.99,-206.58"/>
</g>
<!-- quant_bc_finance -->
<g id="node2" class="node">
<title>quant_bc_finance</title><style>.edge>path:hover{stroke-width:8}</style>
<ellipse fill="#a44646" stroke="black" cx="113.33" cy="-103.88" rx="44.72" ry="22.63"/>
<text xml:space="preserve" text-anchor="middle" x="113.33" y="-106.38" font-family="Helvetica,sans-Serif" font-size="10.00" fill="#ffffff">quant.</text>
<text xml:space="preserve" text-anchor="middle" x="113.33" y="-94.38" font-family="Helvetica,sans-Serif" font-size="10.00" fill="#ffffff">bc_finance</text>
</g>
<!-- quant_bc_finance&#45;&gt;quant_bc_trade_simulation -->
<g id="edge4" class="edge">
<title>quant_bc_finance&#45;&gt;quant_bc_trade_simulation</title><style>.edge>path:hover{stroke-width:8}</style>
<path fill="none" stroke="black" d="M127.25,-82.06C132.9,-73.62 139.54,-63.69 145.72,-54.44"/>
<polygon fill="#a44646" stroke="black" points="148.45,-56.66 151.1,-46.4 142.63,-52.77 148.45,-56.66"/>
</g>
<!-- quant_bc_machine_learning -->
<g id="node3" class="node">
<title>quant_bc_machine_learning</title><style>.edge>path:hover{stroke-width:8}</style>
<ellipse fill="#9f5656" stroke="black" cx="256.33" cy="-266.39" rx="76.01" ry="22.63"/>
<text xml:space="preserve" text-anchor="middle" x="256.33" y="-268.89" font-family="Helvetica,sans-Serif" font-size="10.00" fill="#ffffff">quant.</text>
<text xml:space="preserve" text-anchor="middle" x="256.33" y="-256.89" font-family="Helvetica,sans-Serif" font-size="10.00" fill="#ffffff">bc_machine_learning</text>
</g>
<!-- quant_bc_technical_analysis&#45;&gt;quant_bc_finance -->
<g id="edge5" class="edge">
<title>quant_bc_technical_analysis&#45;&gt;quant_bc_finance</title><style>.edge>path:hover{stroke-width:8}</style>
<path fill="none" stroke="black" d="M113.33,-162.06C113.33,-154.67 113.33,-146.27 113.33,-138.22"/>
<polygon fill="#b03a3a" stroke="black" points="116.83,-138.35 113.33,-128.35 109.83,-138.35 116.83,-138.35"/>
</g>
<!-- quant_bc_technical_analysis&#45;&gt;quant_bc_trade_simulation -->
<g id="edge6" class="edge">
<title>quant_bc_technical_analysis&#45;&gt;quant_bc_trade_simulation</title><style>.edge>path:hover{stroke-width:8}</style>
<path fill="none" stroke="black" d="M167.59,-168.23C199.39,-155.51 231.34,-134.82 220.33,-104.88"/>
<path fill="none" stroke="black" d="M220.33,-102.88C213.82,-85.19 202.51,-67.65 191.92,-53.58"/>
<polygon fill="#b03a3a" stroke="black" points="194.96,-51.8 186.05,-46.07 189.44,-56.1 194.96,-51.8"/>
</g>
<!-- quant_bc_util -->
<g id="node7" class="node">
<title>quant_bc_util</title><style>.edge>path:hover{stroke-width:8}</style>
<ellipse fill="#f31616" stroke="black" cx="152.33" cy="-343.02" rx="43" ry="18"/>
<text xml:space="preserve" text-anchor="middle" x="152.33" y="-339.52" font-family="Helvetica,sans-Serif" font-size="10.00" fill="#ffffff">quant.bc_util</text>
</g>
<!-- quant_bc_util&#45;&gt;quant_bc_data_io -->
<g id="edge7" class="edge">
<title>quant_bc_util&#45;&gt;quant_bc_data_io</title><style>.edge>path:hover{stroke-width:8}</style>
<path fill="none" stroke="black" d="M136.49,-325.83C127.69,-316.83 116.5,-305.39 106.35,-295.02"/>
<polygon fill="#f31616" stroke="black" points="109.06,-292.78 99.57,-288.08 104.06,-297.68 109.06,-292.78"/>
</g>
<!-- quant_bc_util&#45;&gt;quant_bc_finance -->
<g id="edge8" class="edge">
<title>quant_bc_util&#45;&gt;quant_bc_finance</title><style>.edge>path:hover{stroke-width:8}</style>
<path fill="none" stroke="black" d="M6.33,-265.39C-5.29,-220.37 -0.42,-201.23 25.33,-162.51 36.13,-146.26 53.24,-133.54 69.52,-124.23"/>
<polygon fill="#f31616" stroke="black" points="70.99,-127.41 78.14,-119.59 67.68,-121.25 70.99,-127.41"/>
<path fill="none" stroke="black" d="M111.36,-337.23C72.03,-329.98 17.05,-311.95 6.33,-267.39"/>
</g>
<!-- quant_bc_util&#45;&gt;quant_bc_machine_learning -->
<g id="edge9" class="edge">
<title>quant_bc_util&#45;&gt;quant_bc_machine_learning</title><style>.edge>path:hover{stroke-width:8}</style>
<path fill="none" stroke="black" d="M173.38,-326.92C186.35,-317.61 203.37,-305.39 218.62,-294.45"/>
<polygon fill="#f31616" stroke="black" points="220.51,-297.4 226.6,-288.73 216.43,-291.71 220.51,-297.4"/>
</g>
<!-- quant_bc_util&#45;&gt;quant_bc_technical_analysis -->
<g id="edge10" class="edge">
<title>quant_bc_util&#45;&gt;quant_bc_technical_analysis</title><style>.edge>path:hover{stroke-width:8}</style>
<path fill="none" stroke="black" d="M6.33,-265.39C-0.61,-238.5 22.53,-219.39 49.05,-206.68"/>
<polygon fill="#f31616" stroke="black" points="50.22,-210 57.94,-202.74 47.38,-203.6 50.22,-210"/>
</g>
<!-- quant_bc_util&#45;&gt;quant_bc_trade_simulation -->
<g id="edge11" class="edge">
<title>quant_bc_util&#45;&gt;quant_bc_trade_simulation</title><style>.edge>path:hover{stroke-width:8}</style>
<path fill="none" stroke="black" d="M192.57,-336.46C242.54,-328.64 323.42,-312.65 341.33,-289.02 352.03,-274.9 350.25,-182.17 337.33,-162.51 305.51,-114.06 239.64,-159.54 220.33,-104.88"/>
</g>
<!-- quant_bc_util&#45;&gt;quant_bc_trader -->
<g id="edge12" class="edge">
<title>quant_bc_util&#45;&gt;quant_bc_trader</title><style>.edge>path:hover{stroke-width:8}</style>
<path fill="none" stroke="black" d="M151.26,-324.53C150.88,-303.29 153.3,-267.38 171.33,-243.76 176.45,-237.05 215.32,-218.6 246.87,-204.37"/>
<polygon fill="#f31616" stroke="black" points="248.15,-207.63 255.85,-200.35 245.29,-201.24 248.15,-207.63"/>
</g>
</g>
</svg>
